HIERARCHY
ROOT hip
{
	OFFSET 0.000000 0.000000 0.000000 
	CHANNELS 6 Xposition Yposition Zposition Xrotation Zrotation Yrotation
	JOINT abdomen
	{
		OFFSET 0.000000 3.402643 0.000000 
		CHANNELS 3 Xrotation Zrotation Yrotation
		JOINT chest
		{
			OFFSET 0.000000 8.438565 -0.680529 
			CHANNELS 3 Xrotation Zrotation Yrotation
			JOINT neck
			{
				OFFSET 0.000000 10.207942 -0.272212 
				CHANNELS 3 Xrotation Zrotation Yrotation
				JOINT head
				{
					OFFSET 0.000000 3.130431 0.000000 
					CHANNELS 3 Xrotation Zrotation Yrotation
					End Site
					{
						OFFSET 0.000000 3.130435 0.000000 
					}
				}
			}
			JOINT lCollar
			{
				OFFSET 3.470700 6.669187 -0.816635 
				CHANNELS 3 Yrotation Zrotation Xrotation
				JOINT lShldr
				{
					OFFSET 3.198488 0.000000 0.000000 
					CHANNELS 3 Zrotation Yrotation Xrotation
					JOINT lForeArm
					{
						OFFSET 10.139888 0.000000 0.000000 
						CHANNELS 3 Yrotation Zrotation Xrotation
						JOINT lHand
						{
							OFFSET 8.370511 0.000000 0.000000 
							CHANNELS 3 Zrotation Yrotation Xrotation
							End Site
							{
								OFFSET 4.083176 0.000000 0.000000 
							}
						}
					}
				}
			}
			JOINT rCollar
			{
				OFFSET -3.470700 6.669187 -0.816635 
				CHANNELS 3 Yrotation Zrotation Xrotation
				JOINT rShldr
				{
					OFFSET -3.198488 0.000000 0.000000 
					CHANNELS 3 Zrotation Yrotation Xrotation
					JOINT rForeArm
					{
						OFFSET -10.139888 0.000000 0.000000 
						CHANNELS 3 Yrotation Zrotation Xrotation
						JOINT rHand
						{
							OFFSET -8.370511 0.000000 0.000000 
							CHANNELS 3 Zrotation Yrotation Xrotation
							End Site
							{
								OFFSET -4.083176 0.000000 0.000000 
							}
						}
					}
				}
			}
		}
	}
	JOINT lThigh
	{
		OFFSET 5.308129 -1.633274 1.361059 
		CHANNELS 3 Xrotation Zrotation Yrotation
		JOINT lShin
		{
			OFFSET -2.041588 -20.007561 0.000000 
			CHANNELS 3 Xrotation Zrotation Yrotation
			JOINT lFoot
			{
				OFFSET 0.000000 -19.190928 -1.224953 
				CHANNELS 3 Xrotation Yrotation Zrotation
				End Site
				{
					OFFSET 0.000000 -2.449906 4.627600 
				}
			}
		}
	}
	JOINT rThigh
	{
		OFFSET -5.308129 -1.633274 1.361059 
		CHANNELS 3 Xrotation Zrotation Yrotation
		JOINT rShin
		{
			OFFSET 2.041588 -20.007561 0.000000 
			CHANNELS 3 Xrotation Zrotation Yrotation
			JOINT rFoot
			{
				OFFSET 0.000000 -19.190928 -1.224953 
				CHANNELS 3 Xrotation Yrotation Zrotation
				End Site
				{
					OFFSET 0.000000 -2.449906 4.627600 
				}
			}
		}
	}
}
MOTION
Frames: 8
Frame Time: 0.100000
0.000000 42.014908 0.240040 0.000000 0.000000 0.000000 0.000000 0.000000 0.000000 0.000000 0.000000 0.000000 0.000000 0.000000 0.000000 0.000000 0.000000 0.000000 2.021920 -5.690310 -0.063351 -70.098778 9.917699 15.952798 -22.643412 -9.360260 0.092847 5.966780 -0.014280 0.184801 -2.021920 5.690310 -0.063351 66.100700 28.021200 15.991600 45.515598 9.303740 0.147736 -5.969490 0.173112 0.175734 -7.544928 3.982114 0.126592 15.855997 -3.300727 -0.855127 -8.588077 1.056593 -0.877759 -7.531943 -4.331991 0.100592 15.798183 3.280715 0.615038 -8.629052 -1.569327 0.946211 
0.000000 42.014908 0.240040 0.000000 0.000000 0.000000 -2.465678 -0.000147 -0.000055 -1.387423 0.000000 0.000000 0.000000 0.000000 0.000000 -1.037859 0.000000 0.000000 2.021920 -5.690310 -0.063351 -69.621071 13.195521 16.550589 -23.321564 -9.553551 -0.004529 5.770933 1.070991 0.483679 -2.021920 5.690310 -0.063351 67.122688 30.553087 16.284407 55.530025 8.763740 -1.455461 -5.969490 0.173112 0.175734 -7.544928 3.982114 0.126592 15.855997 -3.300727 -0.855127 -8.588077 1.056593 -0.877759 -7.531943 -4.331991 0.100592 15.798183 3.280715 0.615038 -8.629052 -1.569327 0.946211 
0.000000 42.014908 0.240040 0.000000 0.000000 0.000000 -5.513241 -0.000438 -0.000164 -3.055029 0.000000 0.000000 0.000000 0.000000 0.000000 -2.280187 0.000000 0.000000 2.021920 -5.690310 -0.063351 -69.424446 16.505016 17.112070 -22.582041 -9.302796 0.077753 5.208896 1.635634 0.885119 -2.021920 5.690310 -0.063351 68.390892 33.697884 16.648359 68.045197 8.094730 -3.442819 -5.969490 0.173112 0.175734 -7.544928 3.982114 0.126592 15.855997 -3.300727 -0.855127 -8.588077 1.056593 -0.877759 -7.531943 -4.331991 0.100592 15.798183 3.280715 0.615038 -8.629052 -1.569327 0.946211 
0.000000 42.014908 0.240040 0.000000 0.000000 0.000000 -8.735285 -0.000755 -0.000283 -4.814714 0.000000 0.000000 0.000000 0.000000 0.000000 -3.590732 0.000000 0.000000 2.021920 -5.690310 -0.063351 -68.643158 20.678972 17.780943 -23.256487 -9.530828 -0.005401 4.850463 2.909354 1.451520 -2.021920 5.690310 -0.063351 69.732071 37.023830 17.033295 81.286758 7.387306 -5.544375 -5.969490 0.173112 0.175734 -7.544928 3.982114 0.126592 15.855997 -3.300727 -0.855127 -8.588077 1.056593 -0.877759 -7.531943 -4.331991 0.100592 15.798183 3.280715 0.615038 -8.629052 -1.569328 0.946211 
0.000000 42.014908 0.240040 0.000000 0.000000 0.000000 -11.886978 -0.000911 -0.000341 -6.601853 0.000000 0.000000 0.000000 0.000000 0.000000 -4.929083 0.000000 0.000000 2.021920 -5.690310 -0.063351 -67.205635 25.482121 18.686193 -25.347359 -10.212798 -0.305888 4.714277 4.751356 2.149020 -2.021920 5.690310 -0.063351 71.036949 40.255692 17.406975 94.047600 6.697520 -7.591937 -5.969491 0.173112 0.175734 -7.544928 3.982114 0.126592 15.855997 -3.300727 -0.855127 -8.588077 1.056593 -0.877759 -7.531943 -4.331991 0.100592 15.798183 3.280715 0.615038 -8.629052 -1.569328 0.946211 
0.000000 42.014908 0.240040 0.000000 0.000000 0.000000 -14.723494 -0.000721 -0.000270 -8.351823 0.000000 0.000000 0.000000 0.000000 0.000000 -6.254831 0.000000 0.000000 2.021920 -5.690310 -0.063351 -65.431793 30.209887 19.792624 -27.842321 -11.012401 -0.682965 4.677135 6.663161 2.870121 -2.021920 5.690310 -0.063351 72.196243 43.118221 17.737160 105.120613 6.081426 -9.417311 -5.969491 0.173112 0.175734 -7.544928 3.982114 0.126592 15.855997 -3.300727 -0.855127 -8.588077 1.056593 -0.877759 -7.531943 -4.331991 0.100592 15.798183 3.280715 0.615038 -8.629052 -1.569328 0.946211 
0.000000 42.014908 0.240040 0.000000 0.000000 0.000000 -17.000000 0.000000 0.000000 -10.000000 0.000000 0.000000 0.000000 0.000000 0.000000 -7.527564 0.000000 0.000000 2.021920 -5.690310 -0.063351 -64.388977 33.743042 20.602812 -28.344816 -11.171668 -0.777801 4.437941 7.355124 3.518498 -2.021920 5.690310 -0.063351 73.100700 45.336170 17.991600 113.298714 5.595078 -10.852300 -5.969490 0.173112 0.175734 -7.544928 3.982114 0.126592 15.855997 -3.300727 -0.855127 -8.588077 1.056593 -0.877759 -7.531943 -4.331991 0.100592 15.798183 3.280715 0.615038 -8.629052 -1.569327 0.946211 
0.000000 42.014908 0.240040 0.000000 0.000000 0.000000 -18.534264 0.001369 0.000513 -11.489576 0.000000 0.000000 0.000000 0.000000 0.000000 -8.712350 0.000000 0.000000 2.021920 -5.690310 -0.063351 -63.792294 36.423252 21.144232 -28.123119 -11.084246 -0.739184 4.268497 7.420556 4.067132 -2.021920 5.690310 -0.063351 73.670197 46.727692 18.145531 117.801079 5.282403 -11.772786 -5.969490 0.173112 5.716416 -7.544928 3.982114 0.126592 15.855997 -3.300727 -0.855127 -8.588077 1.056593 -0.877759 -7.531943 -4.331991 0.100592 15.798183 3.280715 0.615038 -8.629052 -1.569327 0.946211 
